<svg xmlns="http://www.w3.org/2000/svg" viewBox="0 0 150 150">
<!-- SVG created with Arrow, by QuiverAI (https://quiver.ai) -->
  <style type="text/css">.cls-0 {fill:#4495D7;}
.cls-1 {fill:#3880B7;}
.cls-2 {fill:#4E6EB4;}
.cls-3 {opacity:0.5;fill:#5C688F;}
.cls-4 {fill:#3C7BC1;}
.cls-5 {fill:#478FCE;}
.cls-6 {fill:#EEA5A5;}
.cls-7 {fill:#EA5652;}
.cls-8 {fill:#DE8D8D;}
.cls-9 {fill:#BD5D5D;}
.cls-10 {fill:#AC3F3F;}
.cls-11 {fill:#7D2696;}
.cls-12 {fill:#D6944E;}
.cls-13 {fill:#AF6727;}
.cls-14 {fill:#FFDD55;}
.cls-15 {fill:#FCD69A;}
.cls-16 {fill:#FABB6B;}
.cls-17 {fill:#FCBF3D;}
.cls-18 {fill:#7F6D58;}
.cls-19 {fill:#AAD6AE;}
.cls-20 {fill:#7AB78D;}
.cls-21 {fill:#A9D4AD;}
.cls-22 {fill:#F0EBDF;}
.cls-23 {fill:#FBE980;}
.cls-24 {fill:#358D46;}
.cls-25 {fill:#287743;}
.cls-26 {fill:#FFEFE6;}
.cls-27 {fill:#EEE5E2;}
.cls-28 {fill:#FFDACD;}
.cls-29 {fill:#FCCDB6;}
.cls-30 {fill:#FBBFA3;}
.cls-31 {fill:#FFCFAB;}
.cls-32 {fill:#FFF0E8;}
.cls-33 {fill:#68B1EC;}
.cls-34 {fill:#535B69;}
.cls-35 {fill:none;}
.cls-36 {fill:#4F9AD4;}
.cls-37 {fill:#64ACE3;}
.cls-38 {fill:#83C2E4;}
.cls-39 {fill:#54AFE4;}
.cls-40 {fill:#3F8AC9;}
.cls-41 {fill:#6BA5CB;}
.cls-42 {fill:#6F8395;}
.cls-43 {fill:#7291AC;}
.cls-44 {fill:#6378AA;}
.cls-45 {fill:#316DB5;}
.cls-46 {fill:#E2E2DE;}
.cls-47 {fill:#FDCAA9;}
.cls-48 {fill:#FBCCA6;}
.cls-49 {fill:#447FBB;}
.cls-50 {fill:#804748;}
.cls-51 {fill:#458EC6;}
.cls-52 {fill:#3F7FBC;}
.cls-53 {fill:#3E7DBC;}
.cls-54 {fill:#4A9CD5;}
.cls-55 {fill:#4386C3;}
.cls-56 {fill:#4683B9;}
.cls-57 {fill:#4C8DCB;}
.cls-58 {fill:#4277AE;}
.cls-59 {fill:#478ACC;}
.cls-60 {fill:#4090CA;}
.cls-61 {fill:#2F71AE;}
.cls-62 {fill:#3A80B9;}
.cls-63 {fill:#3980BD;}
.cls-64 {fill:#4585C2;}
.cls-65 {fill:#4B86C2;}
.cls-66 {fill:#3A6CAF;}
.cls-67 {fill:#3D74B1;}
.cls-68 {fill:#397FC0;}
.cls-69 {fill:#63ABC6;}
.cls-70 {fill:#FFFFFF;}
.cls-71 {fill:#427FB6;}
.cls-72 {fill:#4082C4;}
.cls-73 {fill:#74D0EF;}
.cls-74 {fill:#3572B6;}
.cls-75 {fill:#4487C4;}
.cls-76 {fill:#2963A4;}
.cls-77 {fill:#396CBD;}
.cls-78 {fill:#76ADD3;}
.cls-79 {fill:#4583B9;}
.cls-80 {font-family:'Roboto-Bold';}
.cls-81 {font-size:5px;}
.cls-82 {fill:#4192CD;}
.cls-83 {fill:#FFEDCD;}
.cls-84 {fill:#FCD79B;}
.cls-85 {fill:#C99142;}
.cls-86 {fill:#DAEBD4;}
.cls-87 {fill:#E2DECD;}
.cls-88 {fill:#FAAF68;}
.cls-89 {fill:#FEC061;}
.cls-90 {fill:#FEBC3F;}
.cls-91 {fill:#4385BD;}
.cls-92 {fill:#3F81B7;}</style>
  <path class="cls-0" d="m7.3 122.2c0 9.3 26.8 16.8 67.7 16.8 38-0.1 68.7-6.1 70.7-15.2 2.2-9.8-30.5-15.8-70.7-16.4s-67.7 5.5-67.7 14.8z"/>
  <path class="cls-1" d="m38.8 130.6c0 5.4 14.9 8.3 36.7 8.4 23.1 0 41.8-1.4 42.2-6.9s-8-7.6-25.6-10.2c-17.6-2.3-53.3 3.3-53.3 8.7z"/>
  <path class="cls-3" d="m52.4 120 0.4 9.3 3.2 1.7 7.7-0.6v2.6l4.3-1h2.1v3l3.9-1.1v-8l1.8-1.7 0.2-0.2-8-1.8-7.4-1.3s-6.2-2-8.2-0.9z"/>
  <ellipse class="cls-1" cx="73.6" cy="121" rx="18.2" ry="3.4"/>
  <path class="cls-4" d="m90.6 121.5 6.8 1.5 1.6-1c-0.6-0.2-4.3-1.3-8.4-0.5z"/>
  <polygon class="cls-5" points="82.3 117.7 82.3 122.7 87.7 122.2 87.7 120.7 93.2 121.1 93 117.3"/>
  <polygon class="cls-6" points="32.8 98 33 110.1 35.5 110.1 35.4 112.5 37.9 112.5 38 113.8 41.3 113.8 41.4 114.9 45.7 114.7 45.7 115.9 50.7 115.6 50.8 116.6 52.6 116.6 52.6 118.6 54.6 118.6 54.6 120.1 58.2 120.1 58 121.2 62.8 120.6 63 122.3 68 121.2 68.9 122.8 72.7 121.8 75.4 122.6 77.4 121.7 81.5 122.8 82 122.5 82.1 117.6 84 116.6 88.9 117.6 90 116.2 95.2 117.2 95.2 115.8 100.7 115.3 105.4 115.6 105.4 114.6 109.7 114.7 109.6 113.6 113.1 113.6 113.2 112.5 115.5 112.3 115.4 111.2 116.9 111 117.2 105 117.5 98.6 63.2 96.9"/>
  <polygon class="cls-7" points="35.5 99 37.3 99 37.9 101.7 35.5 101.9"/>
  <polygon class="cls-7" points="43.5 100.6 45.5 100.4 45.5 103.6 41.1 103.6 41.1 102.6 37.7 103.1 37.7 107.1 41.3 107.1 41.3 108.3 45.6 108.3 45.7 104.5 50.8 104.1 50.8 105.7 52.3 105.2 56.4 104.9 56.4 101.6 55.5 101.4 47.1 101.4 47.2 100.1 45.1 100.3"/>
  <polygon class="cls-7" points="45.7 109.2 50.8 108.6 50.8 114.6 56.5 113.9 56.5 108.6 61.8 107.6 61.8 116.1 56.6 117.2 56.6 115.8 53.4 116.4 53.4 116.5 50.8 116.6 50.8 115.2 45.7 115.6"/>
  <polygon class="cls-7" points="61.8 103 62 101.6 64.2 101.4 66.8 102.6 69 101.9 69 119 67.8 120.5 65.9 119.9 64.2 119.5 62.7 117.7 63 104.6"/>
  <path class="cls-7" d="m67.2 114.6-4.2 1.2v2.1s2.2 3.1 4.2 2v0.6l0.7-0.4-0.1-2.9-0.6-0.7v-1.9z"/>
  <polygon class="cls-7" points="68.9 102.2 68.9 121.6 72.7 122.1 72.7 116.7 75.3 118.1 78.3 116.7 78.3 102 77 101.8 73.2 102.9 70.5 101.7"/>
  <polygon class="cls-6" points="67 101.8 69 101.4 69 118.2 67 116.9"/>
  <polygon class="cls-6" points="72.7 102.8 75.4 102 76 101.9 75.7 118.2 72.8 116.6"/>
  <polygon class="cls-6" points="78.5 102.5 81.8 102 82.4 102.2 82.5 102 85 102 82.7 117.9 78.3 116.7"/>
  <polygon class="cls-8" points="95.3 100.9 93.6 101.1 93.6 102.2 90.2 101.6 89 101.4 89 116.3 95.2 117.2 95.2 115.8 100.8 115 100.8 114.9 100.9 115 100.9 110.5 100.3 103.6 100.9 103.1 100.9 100.6"/>
  <polygon class="cls-8" points="100.3 100.6 100.3 102.6 95.3 102.5 95.3 113.9 99.2 114 100.9 114.6 105.4 115.3 105.4 114.1 109.6 114.6 109.6 113.6 109.7 113.6 109.7 114.6 109.7 114.7 109.7 103 109.7 101"/>
  <path class="cls-8" d="m105.7 100 0.3 2-5.4-0.4 5.1-1.6zm4.6 0.1-4.5 1.9 4.4 1"/>
  <polygon class="cls-8" points="115.5 98.6 117.4 98.6 117.1 109.6 115.4 109.9 115.4 111.4 113 111.7 113.2 113.6 109.6 113.6 109.7 104.1"/>
  <polygon class="cls-9" points="105.7 100 113 100 115 99.5 115.2 99.6 115.4 99 115.5 98.6 117.4 98.6 117.3 101 115.7 102 115.7 106.4 113 108.3 113.2 110.1 109.6 110 108 109.9 105.5 109.4"/>
  <polygon class="cls-10" points="115.7 102.6 115.7 101.4 117.2 101.4 117.3 102.8"/>
  <polygon class="cls-10" points="113.2 103.6 116.2 103 116 105.1 113.2 105.9"/>
  <polygon class="cls-7" points="76 111.5 78.3 110.5 78.3 114.8 75.9 116"/>
  <polygon class="cls-7" points="69 111.7 72.7 110.7 72.7 115 69 116.5"/>
  <polygon class="cls-7" points="62.9 106.6 67.1 105.4 67.1 109.8 62.9 111.4"/>
  <polygon class="cls-7" points="56.4 106.4 61.7 105.1 61.8 109.5 56.5 110.8"/>
  <polygon class="cls-7" points="50.8 109.4 50.8 114.1 56.5 113.9 56.4 110.6"/>
  <polygon class="cls-7" points="45.6 113 45.7 109.2 51.1 110 51.1 113.6"/>
  <polygon class="cls-11" points="32.6 97.9 35.5 99 35.5 111.4 34 111.4 33.7 110.1 32.8 109.9"/>
  <polygon class="cls-12" points="24.7 74.9 24.9 90.6 25.1 93 26.1 93.6 30 97.6 45.1 98.4 53.3 98.9 53.6 99.1 76 99 102.4 99 114.9 98.1 115.2 97.5 115.8 95.9 115.5 71.9 94.9 73.6 78.9 72.9 60.1 74 47.4 73.1 34.1 73"/>
  <polygon class="cls-13" points="24.9 84.4 26.4 85.4 27.3 85.4 27.3 83.7 29.6 83.7 29.6 82.2 33 82.3 33.1 82.9 37.1 82.8 37.1 83.7 41.7 83.4 41.7 84.2 47 83.7 47.3 87.4 48.7 86.6 53.5 86.6 53.5 89.5 57.2 89.4 58.2 89.2 58.9 89.6 58.9 91.5 55.9 91.7 53.4 91.9 53.4 93.1 52 93.4 47.1 93.9 47.1 95.1 45.1 95.1 44.9 95.6 41.9 95.6 41.8 94.6 37.3 95 36.9 94.4 33.1 94.4 33.1 93.4 29.8 93.2 29.7 90.4 27.4 90.4 27.2 87.4 25.4 87.2 24.9 86.1"/>
  <polygon class="cls-14" points="94 79.6 88.9 83.7 82.6 88 82.3 93.4 87.5 97 93.6 99.6 99 100.5 100 100 104.5 100 105.4 99.4 110.8 99.2 113.5 98.1 114.9 98.1 115.2 97.5 118.5 93 121.1 89.6 121.2 86 115.7 80.9 110.3 79.1 103.9 78.9"/>
  <polygon class="cls-15" points="24.7 74.9 24.7 78.6 26.5 79.1 27.3 79.1 27.3 77.1 29 77.1 29 77.4 37.5 78.6 46.9 78.9 46.9 79.9 53.4 79.4 62.4 79.6 66.4 79.6 72.7 80.1 76 80 83.5 80 87.2 80 93.6 80 95.9 79.4 104.2 78.6 115.5 78 118 77.4 125.1 74.6 114.9 73.1 94.9 73.6 78.9 72.9 60.1 74"/>
  <polygon class="cls-16" points="82 73.9 85.4 73.9 83.7 80 79.7 79.9"/>
  <polygon class="cls-17" points="67.4 48.1 67.4 43.9 67.7 43.1 67.7 39.3 68.6 39.3 68.5 35.7 70 35.2 72.9 35.4 78.7 35.4 80.7 37.2 80.7 43 81.8 43 81.8 46.4 80.2 46.6 80.2 48.1 79.4 48.6 69.7 48.4"/>
  <ellipse class="cls-18" cx="68.9" cy="75.7" rx="35.5" ry="3.1"/>
  <path class="cls-19" d="m36.7 58.9 0.3 15.5 1.4 1 2.3 0.2 0.6 0.5 2.8 0.1 0.1 0.4h4.2l0.3 0.5h5v0.3l5.2-0.2 6.5 0.4 0.8 0.3 4-0.5 2.9 0.7 2.9-0.7 2.9 0.7 2.3-0.5 4.2 0.4 1.6-0.8 5.4 0.3v-0.5l5.7 0.2v-0.5h4.8v-0.3h4v-0.5h2.3l0.9-0.3 3.4-0.5v-17l-13.5 0.5-23 0.4-14 0.6h-3.8-9l-8.8-0.4"/>
  <polygon class="cls-20" points="36.7 58.9 36.8 61.4 40.5 61.7 40.6 61.9 44.1 62.2 44.4 62.8 47.1 62.2 48.7 62.2 48.8 62.6 53.7 62.7 53.9 63 54.9 62.7 59.1 62.7 59.5 62.7 59.4 60.4 54.9 60.4 54.7 60.2 48.7 60.1 48.5 59.9 44.9 59.9 39 59.4"/>
  <polygon class="cls-21" points="59.6 60.4 65.4 60.2 65.4 77.6 64.2 77.5 59.6 77.9 59.6 74.5 59.8 74.5 59.6 64.6"/>
  <polygon class="cls-22" points="64.7 60.2 66.1 60.3 66.1 78 64.8 77.6"/>
  <polygon class="cls-20" points="76 63 81.1 63 81.4 62.8 81.8 62.8 82.1 63 87 63 87 62.7 89.4 62.7 90.1 63.2 92.9 63.2 92.9 62.4 103.1 62.6 103.1 62.1 106.9 62.1 106.9 62.2 107 62.3 107.6 62.1 106.9 73.9 102.9 73.9 102.9 74.6 98.1 74.8 97.9 75.1 92.6 74.5 92.6 75.2 91 75 86.5 75.1 86.4 75.4 83.5 75.4 83.2 75 80.9 75 80.7 75.6 77.1 75.6 76.1 75"/>
  <polygon class="cls-20" points="110.4 59.4 113.7 58.9 113.5 74.4 110.1 75.6"/>
  <polygon class="cls-23" points="73.1 48.1 83 48.1 88.6 48.1 88.5 58.4 77.7 58.6 72.9 58.6"/>
  <polygon class="cls-24" points="110.4 59.1 113.6 58.6 113.6 66 110.3 66"/>
  <polygon class="cls-24" points="53.4 48.1 55.4 48.1 56.9 48.1 67.9 48.4 68.6 48.1 68.6 58.6 57.9 58.4 53.7 58.2"/>
  <polygon class="cls-25" points="57.9 48.1 62.4 48.1 62.4 58.4 57.9 58.4"/>
  <polygon class="cls-22" points="54.4 48.1 57.9 48.1 57.8 58.3 54.5 58.3"/>
  <polygon class="cls-26" points="72.5 18.1 74.9 9.3 77 18.1"/>
  <polygon class="cls-27" points="73.1 18.6 73.1 20.9 77 20.9 77 19.1 77.7 19.1 78.4 19.4 78.5 21.6 77.9 22.4 74.9 22.1 71.1 23.4"/>
  <polygon class="cls-28" points="70.4 27 68.7 26.8 68.7 35.4 72.6 35.4 76.4 35.2 81.1 35.2 80 31.2 80.1 22.8 78.9 22.8 78.9 23.7 78.7 22.1 76.7 21.6 76.5 20.4 72.6 20.5 71.4 23.5"/>
  <polygon class="cls-29" points="72.6 23.5 71.1 23.7 70.9 26 70.4 26 70.4 29.4 71.7 28.9 72.2 29.4 71.7 30.6 72.6 30 73.1 30.6 73.5 31.7 74 31 74 27 77.7 27 78 25.4 78.6 26 79.5 26 78.9 23.7 78.7 21.6 76.7 21.6 76.4 20.4 72.9 20.4"/>
  <polygon class="cls-30" points="68.6 26.8 68.6 27.9 69.6 27.9 69.6 26.8"/>
  <polygon class="cls-31" points="79.4 22.8 79 25.2 80.4 25.4 80.4 22.9"/>
  <polygon class="cls-22" points="68.6 48.1 72.8 48.4 72.9 58.6 68.7 58.6"/>
  <polygon class="cls-25" points="75.5 48.1 77.8 48.3 77.8 58.6 75.5 58.6"/>
  <polygon class="cls-24" points="82 48.1 82.4 48.1 82.5 56.9 82.1 56.9"/>
  <polygon class="cls-23" points="73.1 48.1 75.5 48.1 75.5 50.4 72.9 50.4"/>
  <polygon class="cls-32" points="71.1 23.7 72.9 23.7 73.2 25.7 77 25.6 78 25.2 78.1 26.8 74 26.6 74 31 73.5 31 73.1 30.6 72.2 27.9 71.1 27.8"/>
  <polygon class="cls-29" points="74 27 77.7 27 78 27.4 78.5 27.2 78 27.9 78 29.4 74 30.6"/>
  <polygon class="cls-28" points="74 30.6 77.7 30.6 78 32.2 76.5 32.3 76.5 33.7 73.9 32.9"/>
  <polygon class="cls-32" points="73.9 32.3 76.1 32.2 76.1 33.7 72.5 34.4 72.5 32.1"/>
  <polygon class="cls-29" points="72.5 34.4 76.1 34.4 75.7 35.4 72.7 35.4"/>
  <polygon class="cls-30" points="69 35.2 68.6 35.4 68.5 38.9 69 39.4 71.5 39.6 71.9 38.1 71.5 35.4"/>
  <rect class="cls-28" x="78.1" y="31.2" width="3.9" height="4.2"/>
  <polygon class="cls-30" points="75.7 33.7 76.5 32.3 77.6 32.2 78 35.4 75.7 35.4"/>
  <polygon class="cls-30" points="74 36.4 74 37.9 76.5 37.9 76.5 41.7 72.9 41.7 72.6 43.4 76.5 43.4 77.1 42.4 80.7 42.7 80.7 40.4 79.9 40.4 80 37.5 78 37.4 77.7 36"/>
  <polygon class="cls-33" points="79.9 40.4 79.4 38.6 81 37.6 81 39.6 80 39.6"/>
  <polygon class="cls-34" points="42.4 59 50 57.9 64.7 57.9 87.4 58.4 107.4 58.2 108.2 59.1 90.5 59.9 74.5 60.2 69.9 60.4 54.9 60.1 46.1 60.1"/>
  <line class="cls-35" x1="88.5" x2="87" y1="58.6" y2="58.9"/>
  <polygon class="cls-25" points="86.9 65.2 90 65.2 90.2 65.6 92.4 66.1 92.6 65 97.7 65 97.7 73 92.4 72.9 92.2 72.9 92 73 91 73 91 72.6 86.9 72.6"/>
  <polygon class="cls-15" points="84.1 80 87.2 80 88.5 79.6 88.7 101.6 86.8 102.6 84 102"/>
  <polyline class="cls-23" points="88.5 83.7 93.6 82.2 93.6 99.5 90.6 98.6 88.6 96.9 88.5 95.4"/>
  <polygon class="cls-31" points="88.4 48.1 96 48.1 96 57.9 88.2 58.4 88.2 50.1 88.5 49.4 88.6 48.4"/>
  <polygon class="cls-16" points="93.4 48.4 96 48.1 96 57.9 93.5 57.9"/>
  <polygon class="cls-36" points="33.4 56.6 34.6 56.6 34.6 58.1 33.1 58.1"/>
  <polygon class="cls-37" points="33.3 54.1 34.4 54.1 34.7 57 35.4 57 35.6 55.6 36.9 55.6 37.1 54.9 36.6 54.1 36 54.4 35 55.6"/>
  <polygon class="cls-38" points="38.4 53 39.5 53 39.6 56.6 38.6 56.6"/>
  <polygon class="cls-39" points="37.4 56.6 39 56.6 39 58.4 37.6 58.4"/>
  <polygon class="cls-40" points="39 55.7 41 55.7 41.1 56.6 40.2 59.4 39.5 59.2 41 56.4 39.1 56.6"/>
  <path class="cls-41" d="m36.7 64.4v1.3l-1.1-0.5v-0.8h1.1z"/>
  <polygon class="cls-42" points="36.7 66.4 36.7 67.4 36.2 67.2 36.4 66.4"/>
  <polygon class="cls-43" points="36.5 70.5 37.1 70.6 36.9 71.7 36.4 71.6"/>
  <polyline class="cls-44" points="30.7 73.6 30.7 74.4 33 74.4 34.1 73.1 33.7 73 30.6 73.4"/>
  <polygon class="cls-45" points="98.1 117.2 99.6 116.6 101.1 116.6 101.9 116.9 101.9 117.2 99.7 117.9 98.4 117.6"/>
  <polygon class="cls-46" points="96 116.5 97.4 116.5 97.7 118.4 95.8 118.4"/>
  <polygon class="cls-47" points="88.5 77.8 94 79.4 93.7 82.2 88.5 83.7"/>
  <polygon class="cls-15" points="115.5 77.8 125.5 75 125.2 92.6 124.5 96 121.2 97.4 114.9 98.1 115.2 92.6"/>
  <polygon class="cls-48" points="121.7 82.2 125.2 81.2 125.1 85 121.4 86"/>
  <polygon class="cls-48" points="121.2 90.2 125.2 88.9 125.1 92.6 121.6 94"/>
  <polyline class="cls-15" points="119.1 95.1 123.4 95.1 123.4 97 120.4 97.6 120.4 97.9 114.9 98.6 115 96.4 118.4 96.4 118.4 95.1 119.1 95.4 119.1 95.1"/>
  <polygon class="cls-49" points="109 53.4 109.7 53.4 109.9 53.4 109.7 54.5 109 54.4"/>
  <polygon class="cls-50" points="87.1 58.9 88.4 58.6 88.5 59.6 87 59.9"/>
  <polygon class="cls-51" points="124.7 72.7 126.9 72.4 127.4 73 127.4 74.4 127 74.5 126 73.9 124.9 74.5"/>
  <polygon class="cls-52" points="126.2 74.4 127.7 74.1 128.4 74.9 127.9 75.9 126.5 76.1"/>
  <polygon class="cls-53" points="129.2 76.6 130.4 76.6 130.6 77.7 129.2 77.7"/>
  <polygon class="cls-54" points="127.5 78.6 128.9 78.6 128.9 79.9 127.5 79.9"/>
  <polygon class="cls-55" points="129.4 79.6 131 79.9 131.1 80.6 130.9 81 129.7 81"/>
  <polygon class="cls-56" points="131.5 82.6 131.7 83.9 132.4 84.1 133.5 84.1 133.7 83.6 133.4 82.9 132.3 83"/>
  <polygon class="cls-57" points="133.4 87.1 134.6 87.2 135.1 87.9 135 88.5 134.3 89.1 133.1 88.8 132.9 88.1"/>
  <polygon class="cls-58" points="127.1 82.4 128.6 82.6 128.7 83.6 128.4 84 127.5 84 127 83.7"/>
  <polygon class="cls-59" points="133.2 87.2 134.6 87.2 134.7 88.4 133.1 88.4"/>
  <polygon class="cls-60" points="133.5 95.4 134.9 95.6 134.9 96.6 134.6 96.9 133.5 96.8 133.2 96.1"/>
  <polygon class="cls-61" points="93.4 47 94.1 47.2 94.5 47.4 94.4 48.5 93.2 48.6 92.9 47.7"/>
  <polygon class="cls-62" points="97.5 47.4 98.6 47 99.2 47.7 99.1 48.6 97.9 48.7 97.5 48.2"/>
  <polygon class="cls-63" points="98.9 47.7 100.1 47.7 100.1 49.2 99.1 49 98.9 48.4"/>
  <polygon class="cls-64" points="97.1 54.2 97 56.6 99 57.1 99 54.4 97.7 54.4"/>
  <polygon class="cls-65" points="96 52.2 97 52.2 97.1 53.6 96 53.6"/>
  <path class="cls-66" d="m99.2 54.6c-0.2 0-2.2-0.2-2.2-0.2l0.5 0.7h1.5l0.2-0.5z"/>
  <polygon class="cls-67" points="97.7 55.9 98.9 55.9 99 56.9 97.6 56.9"/>
  <polygon class="cls-68" points="71.3 20.4 72.6 20.4 72.6 21.6 71.3 21.6"/>
  <polygon class="cls-69" points="72.6 24.1 73 24.4 72.8 25 72.3 24.9"/>
  <circle class="cls-70" cx="78.4" cy="26.1" r=".6"/>
  <ellipse class="cls-71" cx="24.7" cy="117.4" rx="1.5" ry=".5"/>
  <ellipse class="cls-72" cx="19.5" cy="119.4" rx="1.7" ry=".5"/>
  <ellipse class="cls-63" cx="18.4" cy="123.4" rx="1.5" ry=".5"/>
  <ellipse class="cls-71" cx="15.5" cy="129.2" rx="1.6" ry=".5"/>
  <ellipse class="cls-67" cx="17.8" cy="130.8" rx="1.5" ry=".5"/>
  <ellipse class="cls-63" cx="27.8" cy="132.9" rx="1.8" ry=".5"/>
  <ellipse class="cls-71" cx="27.8" cy="128.4" rx="1.7" ry=".5"/>
  <ellipse class="cls-63" cx="30.6" cy="126.9" rx="1.6" ry=".5"/>
  <ellipse class="cls-63" cx="38.1" cy="121.6" rx="1.5" ry=".5"/>
  <ellipse class="cls-67" cx="30.5" cy="118.6" rx="1.6" ry=".5"/>
  <ellipse class="cls-73" cx="27.8" cy="116.6" rx="1.1" ry="1"/>
  <ellipse class="cls-67" cx="46.8" cy="120.6" rx="1.3" ry=".5"/>
  <ellipse class="cls-74" cx="114.5" cy="125.4" rx="1.6" ry=".5"/>
  <ellipse class="cls-72" cx="119.5" cy="127.5" rx="1.8" ry=".5"/>
  <ellipse class="cls-71" cx="119.9" cy="131.7" rx="1.6" ry=".5"/>
  <ellipse class="cls-74" cx="101.1" cy="131.2" rx="1.5" ry=".5"/>
  <ellipse class="cls-75" cx="91.9" cy="136.9" rx="1.6" ry=".5"/>
  <ellipse class="cls-75" cx="84" cy="137.9" rx="1.8" ry=".5"/>
  <ellipse class="cls-76" cx="72.1" cy="137.4" rx="1.4" ry=".5"/>
  <ellipse class="cls-75" cx="91" cy="135.4" rx="1.3" ry=".5"/>
  <path class="cls-77" d="m101.5 135.6-3.4 0.4 0.3 0.5 1.2 0.4 3-0.7v-0.6z"/>
  <polygon class="cls-78" points="95.4 116.4 97.6 116.4 97.7 118.5 96 119.5 96 118 95.4 118"/>
  <polygon class="cls-79" points="93 117.1 95.4 117.9 95.7 120 92.9 119.9"/>
  <polygon class="cls-4" points="94 119.9 97.2 120 97.5 121.1 93.6 120.5"/>
  <polygon class="cls-36" points="18.3 95 16.8 95 16.5 96.2 17.5 96.4"/>
  <polygon class="cls-82" points="22.2 74.8 23.7 74.6 24.2 75.1 24 75.9 22.4 75.9"/>
  <polygon class="cls-33" points="24.1 75.1 26 75.1 26.4 75.6 26.2 76.6 24.1 76.6"/>
  <polygon class="cls-83" points="60.3 79.6 65.9 79.9 66.2 102.6 60.5 102.6 58.9 101.4"/>
  <path class="cls-84" d="m66.2 79.9h4.3l0.1 21.7-4 1z"/>
  <polygon class="cls-15" points="73 80.4 76.4 79.9 76.4 101.7 73.1 102.7"/>
  <polygon class="cls-84" points="76.5 79.9 80 80.1 79.9 102.7 76.6 101.9"/>
  <path class="cls-85" d="m66.6 85.5 3.7-0.9 0.1 11.9-3.9 1z"/>
  <polygon class="cls-85" points="73.2 88 76.2 87 76.2 94 73.3 95"/>
  <polygon class="cls-87" points="62.3 47 63.2 47 63.2 47.9 62.1 47.9"/>
  <polygon class="cls-88" points="67.5 39.2 67.5 43 68 43 67.4 43 67.4 47.5 69 47.5 70.5 46 72.5 44.9 75.9 46.6 76.5 46.4 76.5 43.6 73.4 42.9 72.6 40.6 72 40.1 71.2 39.2"/>
  <polygon class="cls-89" points="77.1 43 76.5 43.6 76.5 46.4 72.7 46.6 73 47.5 73.1 48.1 80.2 48.1 80.2 46.4 81.8 46.4 81.8 43"/>
  <polygon class="cls-84" points="53.4 79.5 58.9 79.6 59 101.1 53.5 102"/>
  <polygon class="cls-85" points="59.9 82.9 64.4 82.4 64.4 98.9 59.9 100"/>
  <polygon class="cls-13" points="59.9 89.5 64.4 89.6 64.4 91.7 59.9 92.2"/>
  <polygon class="cls-86" points="80.2 100.1 82.4 99.1 82.4 101.6 80.1 102.6"/>
  <polygon class="cls-87" points="86.8 99.6 88.4 98.4 88.7 101.4 86.9 102.6"/>
  <polygon class="cls-90" points="80 80.4 82.2 80 82.3 84.1 80 85.4"/>
  <polygon class="cls-85" points="80 82.9 82.3 82.5 82.3 84.4 80 85.4"/>
  <polygon class="cls-89" points="80 88 82.3 87.5 82.3 90 80 91.1"/>
  <polygon class="cls-85" points="80 90.2 82.3 89.6 82.3 91.7 80 93"/>
  <polygon class="cls-90" points="80 95.1 82.3 94 82.3 98 80 99.2"/>
  <polygon class="cls-85" points="80 97.2 82.3 96.4 82.3 99 80 100.1"/>
  <polygon class="cls-90" points="86.9 80.1 88.5 79.6 88.5 82.2 86.9 84"/>
  <polygon class="cls-85" points="86.9 82.2 88.5 82 88.5 84 86.9 85.4"/>
  <polygon class="cls-90" points="86.9 87.4 88.4 86.4 88.4 89.4 86.8 91.1"/>
  <polygon class="cls-85" points="86.9 90 88.4 88.9 88.4 91.1 86.8 92.6"/>
  <polygon class="cls-90" points="86.9 94.4 88.4 93.7 88.4 97.7 86.9 99"/>
  <polygon class="cls-85" points="86.6 97 88.4 95.9 88.4 97.9 86.9 99.6"/>
  <polygon class="cls-83" points="53.8 79.4 58.9 79.6 58.7 82.2 53.4 82.4"/>
  <polygon class="cls-83" points="64.4 84.6 66.3 85.4 66.6 81.4 64.6 80.1"/>
  <polygon class="cls-83" points="70.5 80 72.9 80.1 73 85.4 70.4 85"/>
  <polygon class="cls-83" points="76.4 84.6 79.9 85.7 80 80.5 76.4 79.9"/>
  <polygon class="cls-84" points="76.5 89.6 79.9 90.2 80 95.1 76.5 95"/>
  <polygon class="cls-84" points="76.4 99 79.9 100.1 80 102.7 76.6 101.9"/>
  <polygon class="cls-84" points="70.5 99.1 73.2 100.1 73.1 102.7 70.4 101.7"/>
  <polygon class="cls-84" points="64.4 98.9 66.6 99.4 66.6 102.6 64.4 101.6"/>
  <polygon class="cls-84" points="58.9 98.4 60.5 99.6 59.6 102.5 58.9 101.4"/>
  <polygon class="cls-83" points="60.5 115.9 54.5 118.4 54.4 120.1 58.2 120.1 62.8 119 63.3 120.6 65.5 119.7"/>
  <polygon class="cls-83" points="54.4 116.4 57.5 117.9 54.4 118.4"/>
  <polygon class="cls-84" points="54.4 116.1 57.5 116.6 54.5 117.4"/>
  <path d="m62.2 117.5 0.54 1.48-4.55 0.79z" fill="#ffdfab" stroke-width=".1472"/>
  <path class="cls-72" d="m26.1 111.3 2.2-0.3v1.6h-2.2z"/>
  <path class="cls-82" d="m26.4 103.1 1.3-0.1 0.2 1.4-1.3 0.1-0.2-0.8z"/>
  <polygon class="cls-82" points="15.6 98.4 16.6 98.4 16.7 99.6 15.7 99.6"/>
  <path class="cls-82" d="m17.4 90.4v-1h0.5 0.2l0.1 1.2h-0.8z"/>
  <polyline class="cls-82" points="20.3 78.3 20.2 79.5 19.2 79.6 19.4 78.4 19.5 78.3"/>
  <path class="cls-82" d="m16.8 89.5h1.4v1.3l-1.2 0.1z"/>
  <path class="cls-82" d="m19.8 84.4h1.3l0.1 1-0.2 0.4-1.3-0.1v-0.9z"/>
  <path class="cls-82" d="m23.1 94.4h1.2l0.1 1.5h-1l-0.4-0.5z"/>
  <path class="cls-82" d="m24.3 80.6 0.6-0.2v1.2l-1.1-0.2v-1z"/>
  <path class="cls-82" d="m20.9 75 1-0.2 0.2 0.6-0.1 0.5-0.5 0.2-0.8-0.2-0.1-0.6z"/>
  <path class="cls-82" d="m18.9 110.4h0.9v1.1l-1.1-0.1z"/>
  <path class="cls-82" d="m24.3 108.4h1v1.1h-1z"/>
  <path class="cls-82" d="m26.8 106.3h1.2l0.1 1.1h-1.2z"/>
  <path class="cls-82" d="m29.7 106.9 1.1 0.1-0.1 1.1h-1z"/>
  <path class="cls-82" d="m29.6 102.5h1.1v1.1h-1z"/>
  <polygon class="cls-82" points="22.7 76.6 23.9 76.5 23.9 77.7 22.7 77.7"/>
  <path class="cls-82" d="m18.9 79.5h1.3l0.1 0.9h-1.4z"/>
  <polygon class="cls-82" points="18.1 103.6 16.8 103.5 16.8 104.4 18.1 104.4"/>
  <polygon class="cls-82" points="17.5 107.4 16.4 107.4 16.4 108.7 17.7 108.7 17.7 107.4"/>
  <polygon class="cls-82" points="17.6 106.6 18.6 107 18.9 106.1 18.7 105.6 17.8 105.8"/>
  <polygon class="cls-84" points="27.2 93.7 25.1 93 25.2 95.2 25.6 95.8 27.6 95.9"/>
  <polygon class="cls-83" points="25 94.9 27.6 94.9 27.7 96.2 25.8 96.1"/>
  <polygon class="cls-82" points="104 52.9 104.1 53.9 104 54.1 104 54.1 102 53.7 102 52.4 103 52.4"/>
  <path class="cls-82" d="m102.1 55.2 1.1-0.2 0.4 0.6v0.6l-0.5 0.4-1-0.1-0.1-0.9z"/>
  <path class="cls-82" d="m100 55.2 1.6-0.2 0.1 1.4h-1.7z"/>
  <polygon class="cls-82" points="31.7 63.4 33 63.4 33 64.6 31.8 64.6"/>
  <polygon class="cls-82" points="30.9 66.2 32.2 66.2 32.4 67.4 31 67.5"/>
  <polygon class="cls-82" points="34.5 66.9 35.9 66.9 36 68.2 34.6 68.2"/>
  <path class="cls-82" d="m27 72 0.9-0.1 0.5 0.3v1.2l-0.9 0.2-0.5-0.6z"/>
  <polygon class="cls-82" points="27.9 75.9 29.9 75.9 30.6 76.6 30.6 77.6 29.6 77.6 29.2 76.9 28.4 76.9"/>
  <polygon class="cls-82" points="30 72 31.4 72 31.5 73.4 30 73.5"/>
  <path class="cls-82" d="m30.2 70.7 0.9-0.3 0.4 0.6-0.1 0.5-0.4 0.4-0.6-0.3-0.2-0.5z"/>
  <path class="cls-82" d="m51.5 47.4 1.2-0.3 0.3 0.5v0.8l-1.2 0.2-0.3-0.6z"/>
  <polygon class="cls-82" points="51.9 50 53 50 53.2 51.2 52 51.4"/>
  <polygon class="cls-82" points="48.9 50.2 50.6 50.6 50.7 52.1 49 52.2"/>
  <polygon class="cls-82" points="47 52.9 49 52.9 49.4 53.9 49.4 54.6 48.6 54 47 53.9"/>
  <path class="cls-82" d="m43.6 54.1 1.6-0.1v0.9l-0.2 0.2v0.8h-1.6"/>
  <polygon class="cls-82" points="42.3 57.6 44 57.7 44 59.1 42.4 59.1"/>
  <polygon class="cls-82" points="47.5 57.9 47.9 57.8 49 57.9 49 58.6 47.4 58.6"/>
  <polygon class="cls-82" points="49.7 59.5 52 59.5 51.9 60.5 49.6 60.5"/>
  <polygon class="cls-82" points="52.3 57.6 53.2 57.6 53.2 58.5 52.2 58.4"/>
</svg>
